<mxfile host="app.diagrams.net" modified="2023-11-15T16:08:40.611Z" agent="Mozilla/5.0 (Windows NT 10.0; Win64; x64) AppleWebKit/537.36 (KHTML, like Gecko) Chrome/119.0.0.0 Safari/537.36" etag="yYdojgtj3A38-KPQN1OY" version="22.1.1" type="github">
  <diagram name="Page-1" id="b4VEQhM-kWsuh1uYvr2B">
    <mxGraphModel dx="1434" dy="790" grid="1" gridSize="10" guides="1" tooltips="1" connect="1" arrows="1" fold="1" page="1" pageScale="1" pageWidth="827" pageHeight="1169" math="0" shadow="0">
      <root>
        <mxCell id="0" />
        <mxCell id="1" parent="0" />
        <mxCell id="a4tBe4ZbVxADKD6X0eAw-1" value="ReceptionnÃ© les pieces pour la construction de la table" style="shape=mxgraph.bpmn.conversation;perimeter=hexagonPerimeter2;whiteSpace=wrap;html=1;aspect=fixed;bpmnConversationType=conv;" parent="1" vertex="1">
          <mxGeometry y="140" width="116.67" height="100" as="geometry" />
        </mxCell>
      </root>
    </mxGraphModel>
  </diagram>
</mxfile>
